<svg width="44" height="24" viewBox="0 0 44 24" fill="none" xmlns="http://www.w3.org/2000/svg">
<path d="M13.8874 0.759998V16.792C13.8874 18.776 13.2794 20.344 12.0634 21.496C10.8687 22.648 9.29004 23.224 7.32738 23.224C5.36471 23.224 3.77538 22.648 2.55938 21.496C1.36471 20.344 0.767375 18.776 0.767375 16.792H4.44738C4.46871 17.7733 4.71404 18.552 5.18338 19.128C5.67404 19.704 6.38871 19.992 7.32738 19.992C8.26604 19.992 8.98071 19.704 9.47138 19.128C9.96204 18.5307 10.2074 17.752 10.2074 16.792V0.759998H13.8874ZM43.2459 0.759998V23H39.5979V7.768L32.8139 23H30.2859L23.4699 7.768V23H19.8219V0.759998H23.7579L31.5659 18.2L39.3419 0.759998H43.2459Z" fill="black"/>
</svg>
